<svg width="18" height="18" viewBox="0 0 18 18" fill="none" xmlns="http://www.w3.org/2000/svg">
<path d="M9 1.82812C7.58154 1.82812 6.19493 2.24875 5.01552 3.0368C3.83611 3.82486 2.91688 4.94495 2.37405 6.25544C1.83123 7.56593 1.68921 9.00796 1.96593 10.3992C2.24266 11.7904 2.92572 13.0683 3.92872 14.0713C4.93173 15.0743 6.20963 15.7573 7.60084 16.0341C8.99205 16.3108 10.4341 16.1688 11.7446 15.6259C13.055 15.0831 14.1751 14.1639 14.9632 12.9845C15.7513 11.8051 16.1719 10.4185 16.1719 9C16.1682 7.09904 15.4114 5.27701 14.0672 3.93282C12.723 2.58864 10.901 1.83184 9 1.82812ZM9 15.3281C7.74842 15.3281 6.52494 14.957 5.48429 14.2616C4.44363 13.5663 3.63254 12.578 3.15358 11.4217C2.67462 10.2654 2.5493 8.99298 2.79347 7.76544C3.03764 6.53791 3.64034 5.41034 4.52534 4.52534C5.41035 3.64034 6.53791 3.03764 7.76545 2.79347C8.99298 2.5493 10.2654 2.67461 11.4217 3.15357C12.578 3.63254 13.5663 4.44363 14.2616 5.48428C14.957 6.52494 15.3281 7.74841 15.3281 9C15.3263 10.6778 14.659 12.2863 13.4726 13.4726C12.2863 14.659 10.6778 15.3263 9 15.3281ZM6.60938 9C6.60938 9.50175 6.76725 9.99078 7.06063 10.3978C7.35401 10.8049 7.76802 11.1093 8.24402 11.2679C8.72002 11.4266 9.23388 11.4315 9.71281 11.2819C10.1917 11.1323 10.6115 10.8358 10.9125 10.4344C10.9796 10.3449 11.0796 10.2857 11.1903 10.2699C11.3011 10.254 11.4136 10.2829 11.5031 10.35C11.5926 10.4171 11.6518 10.5171 11.6676 10.6278C11.6835 10.7386 11.6546 10.8511 11.5875 10.9406C11.1802 11.4837 10.6124 11.8848 9.96439 12.0873C9.31643 12.2897 8.62121 12.2831 7.9772 12.0684C7.3332 11.8537 6.77307 11.4419 6.37614 10.8912C5.97922 10.3405 5.76563 9.67884 5.76563 9C5.76563 8.32116 5.97922 7.65953 6.37614 7.10883C6.77307 6.55813 7.3332 6.14627 7.9772 5.9316C8.62121 5.71693 9.31643 5.71034 9.96439 5.91275C10.6124 6.11515 11.1802 6.5163 11.5875 7.05938C11.6207 7.1037 11.6449 7.15413 11.6587 7.2078C11.6724 7.26147 11.6755 7.31732 11.6676 7.37216C11.6598 7.42701 11.6412 7.47977 11.613 7.52744C11.5848 7.57511 11.5475 7.61676 11.5031 7.65C11.4588 7.68324 11.4084 7.70743 11.3547 7.72118C11.301 7.73493 11.2452 7.73797 11.1903 7.73013C11.1355 7.7223 11.0827 7.70374 11.0351 7.67551C10.9874 7.64729 10.9457 7.60995 10.9125 7.56562C10.6115 7.16422 10.1917 6.86772 9.71281 6.71812C9.23388 6.56851 8.72002 6.57339 8.24402 6.73205C7.76802 6.89072 7.35401 7.19514 7.06063 7.60218C6.76725 8.00922 6.60938 8.49825 6.60938 9Z" fill="#EAEAEA"/>
</svg>
