<svg width="64" height="64" viewBox="0 0 64 64" fill="none" xmlns="http://www.w3.org/2000/svg">
<path d="M50.6668 10.6667H13.3335C11.2118 10.6667 9.17693 11.5096 7.67664 13.0099C6.17635 14.5102 5.3335 16.545 5.3335 18.6667V45.3334C5.3335 47.4551 6.17635 49.49 7.67664 50.9903C9.17693 52.4906 11.2118 53.3334 13.3335 53.3334H50.6668C52.7886 53.3334 54.8234 52.4906 56.3237 50.9903C57.824 49.49 58.6668 47.4551 58.6668 45.3334V18.6667C58.6668 16.545 57.824 14.5102 56.3237 13.0099C54.8234 11.5096 52.7886 10.6667 50.6668 10.6667ZM48.8802 16.0001L32.0002 28.6667L15.1202 16.0001H48.8802ZM50.6668 48.0001H13.3335C12.6263 48.0001 11.948 47.7191 11.4479 47.219C10.9478 46.7189 10.6668 46.0407 10.6668 45.3334V19.3334L30.4002 34.1334C30.8618 34.4796 31.4232 34.6667 32.0002 34.6667C32.5772 34.6667 33.1386 34.4796 33.6002 34.1334L53.3335 19.3334V45.3334C53.3335 46.0407 53.0525 46.7189 52.5525 47.219C52.0524 47.7191 51.3741 48.0001 50.6668 48.0001Z" fill="#9BF00B"/>
</svg>
