<svg width="96" height="96" viewBox="0 0 96 96" fill="none" xmlns="http://www.w3.org/2000/svg">
<path d="M94.1828 43.8451L52.2661 2.22842C51.6922 1.65825 51.0107 1.20594 50.2607 0.897354C49.5107 0.588764 48.7068 0.429932 47.895 0.429932C47.0832 0.429932 46.2793 0.588764 45.5293 0.897354C44.7793 1.20594 44.0978 1.65825 43.5239 2.22842L34.8238 10.8675L45.864 21.8303C47.166 21.3888 48.5668 21.3198 49.9065 21.631C51.2462 21.9422 52.4708 22.6211 53.4405 23.5902C54.4102 24.5594 55.0861 25.7797 55.3908 27.112C55.6956 28.4442 55.617 29.8347 55.1641 31.1248L65.8023 41.6943C67.3762 41.144 69.0919 41.1423 70.6669 41.6896C72.2419 42.2368 73.5822 43.3002 74.4673 44.7049C75.3524 46.1095 75.7293 47.7715 75.5361 49.4173C75.3429 51.063 74.5911 52.5944 73.4044 53.7593C72.2031 54.9595 70.6194 55.7083 68.9239 55.8778C67.2283 56.0473 65.5261 55.627 64.1079 54.6887C62.6898 53.7503 61.6437 52.3522 61.1484 50.7331C60.6531 49.114 60.7393 47.3743 61.3922 45.8113L51.4741 35.9567V61.8919C52.9816 62.633 54.1879 63.8647 54.8918 65.3817C55.5957 66.8988 55.7547 68.6096 55.3424 70.229C54.93 71.8484 53.9711 73.2785 52.6256 74.281C51.2801 75.2835 49.6292 75.7978 47.9481 75.7382C46.2671 75.6786 44.6573 75.0487 43.3873 73.9534C42.1172 72.8582 41.2635 71.3637 40.9686 69.7193C40.6736 68.0748 40.9551 66.3796 41.7662 64.9162C42.5773 63.4529 43.869 62.3098 45.426 61.6775V35.5039C44.5277 35.1384 43.7111 34.6 43.0234 33.9196C42.3357 33.2393 41.7903 32.4305 41.4189 31.5399C41.0474 30.6493 40.8571 29.6946 40.859 28.7306C40.8609 27.7666 41.0549 26.8126 41.4299 25.9234L30.5517 15.1156L1.81119 43.6545C1.23699 44.2244 0.781496 44.901 0.470725 45.6458C0.159954 46.3905 0 47.1887 0 47.9949C0 48.801 0.159954 49.5993 0.470725 50.344C0.781496 51.0888 1.23699 51.7654 1.81119 52.3353L43.7279 93.958C44.3018 94.5281 44.9833 94.9804 45.7333 95.289C46.4833 95.5976 47.2872 95.7564 48.099 95.7564C48.9108 95.7564 49.7147 95.5976 50.4647 95.289C51.2147 94.9804 51.8962 94.5281 52.4701 93.958L94.1888 52.5319C95.347 51.3802 95.9975 49.8191 95.9975 48.1915C95.9975 46.5639 95.347 45.0028 94.1888 43.8511" fill="#EAEAEA"/>
</svg>
