<svg width="64" height="64" viewBox="0 0 64 64" fill="none" xmlns="http://www.w3.org/2000/svg">
<path d="M15.6878 49.7412C14.8878 49.2079 14.1998 48.5279 13.3945 47.5652C12.9764 47.0536 12.5622 46.539 12.1518 46.0212C10.9171 44.4879 10.1385 43.7812 9.33312 43.4906C8.66725 43.2515 8.12361 42.7577 7.8218 42.1179C7.51999 41.478 7.48474 40.7444 7.72378 40.0786C7.96283 39.4127 8.45661 38.8691 9.09648 38.5673C9.73635 38.2654 10.4699 38.2302 11.1358 38.4692C13.1411 39.1892 14.4985 40.4292 16.3278 42.7039C16.0771 42.3919 17.2345 43.8426 17.4825 44.1412C17.9891 44.7466 18.3625 45.1146 18.6558 45.3092C19.1998 45.6746 20.2211 45.8319 21.7225 45.6826C21.7838 44.6639 21.9731 43.6746 22.2611 42.7626C14.3464 40.8266 9.86645 35.7226 9.86645 25.7066C9.86645 22.3999 10.8531 19.4239 12.6878 16.9279C12.1065 14.5439 12.1945 11.6612 13.4931 8.4159C13.6405 8.04879 13.8677 7.71907 14.1583 7.45064C14.4489 7.18221 14.7955 6.98179 15.1731 6.8639C15.3891 6.7999 15.5118 6.77057 15.7278 6.73857C17.8691 6.41057 20.8931 7.1919 24.8344 9.66123C27.1832 9.11212 29.5877 8.83651 31.9998 8.8399C34.4318 8.8399 36.8478 9.11723 39.1571 9.66123C43.0958 7.17323 46.1251 6.3919 48.2825 6.73857C48.5091 6.77323 48.7011 6.81857 48.8638 6.8719C49.234 6.99397 49.5729 7.19572 49.8568 7.46295C50.1406 7.73017 50.3623 8.05637 50.5065 8.41857C51.8051 11.6612 51.8931 14.5439 51.3118 16.9252C53.1544 19.4212 54.1331 22.3786 54.1331 25.7066C54.1331 35.7252 49.6691 40.8132 41.7545 42.7519C42.0878 43.8586 42.2611 45.0959 42.2611 46.4319C42.2614 48.8462 42.2507 51.2604 42.2291 53.6746C42.828 53.8052 43.3636 54.1382 43.7457 54.6174C44.1279 55.0966 44.3333 55.6929 44.3273 56.3058C44.3214 56.9188 44.1044 57.5109 43.7131 57.9827C43.3217 58.4544 42.7797 58.7769 42.1785 58.8959C39.1411 59.5039 36.8904 57.4772 36.8904 54.8292L36.8958 53.6399L36.9091 51.7599C36.9225 49.8719 36.9278 48.1919 36.9278 46.4319C36.9278 44.5732 36.4398 43.3599 35.7945 42.8052C34.0318 41.2852 34.9251 38.3919 37.2345 38.1332C45.1465 37.2452 48.7998 34.1812 48.7998 25.7066C48.7998 23.1599 47.9678 21.0559 46.3651 19.2959C46.0275 18.9259 45.8008 18.4682 45.7112 17.9754C45.6216 17.4825 45.6726 16.9744 45.8585 16.5092C46.3011 15.4052 46.4904 13.9572 46.1144 12.2052L46.0878 12.2132C44.7785 12.5839 43.1278 13.3866 41.1331 14.7439C40.8115 14.9622 40.446 15.1075 40.0623 15.1697C39.6786 15.2319 39.2859 15.2094 38.9118 15.1039C36.6609 14.4807 34.3354 14.1676 31.9998 14.1732C29.6265 14.1732 27.2745 14.4906 25.0878 15.1066C24.715 15.2113 24.324 15.2335 23.9417 15.1718C23.5595 15.1101 23.1953 14.9659 22.8745 14.7492C20.8691 13.3972 19.2105 12.5972 17.8931 12.2239C17.5091 13.9652 17.6985 15.4079 18.1385 16.5092C18.3246 16.9742 18.3761 17.4822 18.2869 17.975C18.1978 18.4678 17.9717 18.9256 17.6345 19.2959C16.0425 21.0399 15.1998 23.1839 15.1998 25.7066C15.1998 34.1652 18.8558 37.2479 26.7251 38.1332C29.0318 38.3919 29.9278 41.2719 28.1758 42.7946C27.6638 43.2426 27.0318 44.7466 27.0318 46.4319V54.8319C27.0318 57.4612 24.8051 59.4319 21.8051 58.9066C21.1965 58.7997 20.6439 58.4848 20.2417 58.0156C19.8395 57.5465 19.6128 56.9522 19.6002 56.3344C19.5876 55.7166 19.7899 55.1136 20.1726 54.6285C20.5554 54.1433 21.0947 53.8061 21.6985 53.6746V51.0346C19.2718 51.1972 17.2665 50.7999 15.6878 49.7412Z" fill="#9BF00B"/>
</svg>
