<svg width="64" height="64" viewBox="0 0 64 64" fill="none" xmlns="http://www.w3.org/2000/svg">
<path d="M17.286 8C16.5922 7.99948 15.9051 8.13564 15.2639 8.40073C14.6227 8.66581 14.0401 9.05462 13.5492 9.54494C13.0583 10.0353 12.6688 10.6175 12.403 11.2584C12.1372 11.8992 12.0003 12.5862 12 13.28C12 16.2 14.366 18.62 17.28 18.62C20.198 18.62 22.566 16.2 22.566 13.284C22.5665 12.5903 22.4303 11.9033 22.1652 11.2622C21.9001 10.6211 21.5113 10.0386 21.0209 9.54789C20.5306 9.05717 19.9484 8.66789 19.3075 8.4023C18.6666 8.1367 17.9797 8 17.286 8ZM43.07 22C38.632 22 36.094 24.32 34.874 26.628H34.746V22.622H26V52H35.114V37.458C35.114 33.626 35.402 29.922 40.144 29.922C44.818 29.922 44.886 34.292 44.886 37.7V52H54V35.864C54 27.968 52.302 22 43.07 22ZM12.726 22.62V52H21.846V22.62H12.726Z" fill="#9BF00B"/>
</svg>
