<svg width="46" height="25" viewBox="0 0 46 25" fill="none" xmlns="http://www.w3.org/2000/svg">
<path d="M4.456 1.216L9.064 1.472C11.112 1.472 12.584 1.22666 13.48 0.735998C13.608 0.650666 13.7147 0.608 13.8 0.608C13.9067 0.608 13.96 0.757333 13.96 1.056C13.96 1.35467 13.7787 1.84533 13.416 2.528C12.8827 3.57333 12.1147 4.096 11.112 4.096L9.352 4.064C9.18133 4.064 9.07467 4.16 9.032 4.352C8.88267 7.488 8.808 10.88 8.808 14.528C8.808 18.1547 8.95733 20.8853 9.256 22.72V22.88C9.256 23.4133 8.744 23.84 7.72 24.16C6.71733 24.48 5.768 24.64 4.872 24.64C4.44533 24.64 4.232 24.5227 4.232 24.288C4.232 24.224 4.264 24.0747 4.328 23.84C4.56267 23.3707 4.76533 21.0987 4.936 17.024C5.128 12.9493 5.224 9.87733 5.224 7.808L5.16 4.32C5.16 4.192 5.096 4.11733 4.968 4.096C4.52 4.01067 4.008 3.968 3.432 3.968C2.28 3.968 1.42667 4.20267 0.872 4.672C0.722667 4.77867 0.584 4.832 0.456 4.832C0.306667 4.832 0.232 4.74667 0.232 4.576C0.232 4.32 0.370667 3.968 0.648 3.52C0.904 3.072 1.18133 2.688 1.48 2.368C2.20533 1.6 3.19733 1.216 4.456 1.216ZM23.9798 6.272L24.1078 5.28C24.1078 4.29867 23.7238 3.66933 22.9558 3.392C22.3584 3.2 21.8998 3.104 21.5798 3.104H21.5478C20.9078 3.104 20.3531 3.21067 19.8838 3.424C19.4144 3.616 19.0731 3.86133 18.8598 4.16C18.4118 4.77867 18.1558 5.42933 18.0918 6.112C18.0918 6.92267 18.4544 7.62667 19.1798 8.224C19.9051 8.8 20.7798 9.312 21.8038 9.76C22.8491 10.1867 23.8838 10.656 24.9078 11.168C25.9531 11.68 26.8384 12.416 27.5638 13.376C28.2891 14.336 28.6518 15.488 28.6518 16.832C28.6518 19.456 27.8198 21.4187 26.1558 22.72C24.5131 24.0213 22.6358 24.672 20.5238 24.672C18.4331 24.672 16.6944 24.2027 15.3078 23.264C13.9424 22.304 13.2598 21.024 13.2598 19.424V19.392C13.2598 18.6027 13.3771 17.92 13.6118 17.344C13.8678 16.7467 14.1664 16.3093 14.5078 16.032C15.2118 15.456 15.8518 15.1467 16.4278 15.104L16.8118 15.072C17.4091 15.072 17.9531 15.2213 18.4438 15.52C18.9344 15.7973 19.1798 16.192 19.1798 16.704C19.1798 16.96 19.0411 17.1733 18.7638 17.344C18.4864 17.5147 18.2411 17.7707 18.0278 18.112C17.8358 18.4533 17.7291 18.7413 17.7078 18.976L17.6438 19.328C17.6438 20.6293 18.2411 21.4933 19.4358 21.92C19.8624 22.0693 20.2038 22.144 20.4598 22.144C21.6331 22.144 22.5718 21.792 23.2758 21.088C24.0011 20.384 24.3638 19.488 24.3638 18.4C24.3638 17.0987 23.8091 16.0427 22.6998 15.232C21.8678 14.6347 20.9611 14.1333 19.9798 13.728C19.0198 13.3227 18.3691 13.0347 18.0278 12.864C17.6864 12.6933 17.3238 12.4907 16.9398 12.256C16.5558 12.0213 16.1291 11.6907 15.6598 11.264C14.6358 10.368 14.1238 9.16267 14.1238 7.648C14.1238 6.112 14.5398 4.82133 15.3718 3.776C16.8651 1.87733 19.1051 0.927999 22.0918 0.927999C23.6704 0.927999 25.0038 1.23733 26.0918 1.856C27.1798 2.45333 27.7238 3.28533 27.7238 4.352C27.7238 5.12 27.4998 5.76 27.0518 6.272C26.6251 6.784 26.0704 7.04 25.3878 7.04C25.0678 7.04 24.7478 6.976 24.4278 6.848C24.1291 6.72 23.9798 6.528 23.9798 6.272ZM34.8203 9.6L34.8523 13.6L34.7243 19.136C34.7456 19.2213 34.7776 19.264 34.8203 19.264C34.8629 19.264 34.8949 19.2427 34.9163 19.2C35.3429 18.6027 35.8656 18.304 36.4843 18.304C37.1243 18.304 37.4443 18.432 37.4443 18.688C37.4443 19.4987 37.5936 20.128 37.8923 20.576C38.2123 21.0027 38.6496 21.216 39.2043 21.216C39.7803 21.216 40.3243 20.832 40.8363 20.064C41.3696 19.296 41.6363 18.272 41.6363 16.992C41.6363 16.5653 41.5509 16.0533 41.3803 15.456C41.0389 14.2613 40.3989 13.4613 39.4603 13.056C38.7776 12.7787 37.6683 12.64 36.1323 12.64C35.9616 12.64 35.8763 12.5227 35.8763 12.288C35.8763 11.0933 36.0896 10.4747 36.5163 10.432C37.0923 10.432 37.7002 10.2827 38.3403 9.984C39.6203 9.38667 40.2603 8.16 40.2603 6.304C40.2603 4.29867 39.1083 3.296 36.8043 3.296L35.8123 3.36C35.4283 3.44533 35.2149 3.60533 35.1723 3.84V3.936C34.9376 4.78933 34.8203 6.67733 34.8203 9.6ZM30.1163 24.448L30.1803 24.096C30.3936 23.712 30.5749 22.1547 30.7243 19.424C30.8736 16.672 30.9483 14.112 30.9483 11.744C30.9483 9.35467 30.8949 7.44533 30.7883 6.016C30.7029 4.56533 30.4469 3.52 30.0203 2.88C29.9349 2.77333 29.8923 2.64533 29.8923 2.496C29.8923 2.34667 30.0203 2.21867 30.2763 2.112C32.0256 1.42933 34.4043 1.088 37.4123 1.088C38.1589 1.088 38.9696 1.19467 39.8443 1.408C40.7189 1.6 41.4336 1.84533 41.9883 2.144C42.5643 2.44267 43.0763 2.90133 43.5243 3.52C43.9936 4.13867 44.2603 4.87467 44.3243 5.728C44.3243 8.82133 43.0443 10.6027 40.4843 11.072C40.3563 11.1147 40.2923 11.168 40.2923 11.232C40.2923 11.2747 40.3456 11.328 40.4523 11.392C41.7749 11.6053 42.8843 12.1387 43.7803 12.992C44.2283 13.3973 44.6336 14.0267 44.9963 14.88C45.3589 15.7333 45.5403 16.7147 45.5403 17.824C45.5403 19.2533 45.1243 20.608 44.2923 21.888C43.6096 22.9333 42.6176 23.68 41.3163 24.128C40.5909 24.384 39.7803 24.512 38.8843 24.512C36.6443 24.512 35.2256 23.7973 34.6283 22.368C34.6069 22.304 34.5749 22.272 34.5323 22.272L34.4043 22.4C33.9563 23.8933 32.6763 24.672 30.5643 24.736C30.2656 24.736 30.1163 24.64 30.1163 24.448Z" fill="#EAEAEA"/>
</svg>
