<svg width="32" height="32" viewBox="0 0 32 32" fill="none" xmlns="http://www.w3.org/2000/svg">
<path d="M29.3332 24.0067C29.3332 24.74 28.7385 25.3333 28.0065 25.3333H17.3265C16.9747 25.3333 16.6372 25.1936 16.3884 24.9448C16.1396 24.696 15.9998 24.3585 15.9998 24.0067C15.9998 23.6548 16.1396 23.3174 16.3884 23.0686C16.6372 22.8198 16.9747 22.68 17.3265 22.68H28.0065C28.7398 22.68 29.3332 23.2733 29.3332 24.0067ZM29.3332 16C29.3332 16.7333 28.7385 17.3267 28.0065 17.3267H3.99317C3.64132 17.3267 3.30387 17.1869 3.05508 16.9381C2.80628 16.6893 2.6665 16.3519 2.6665 16C2.6665 15.6482 2.80628 15.3107 3.05508 15.0619C3.30387 14.8131 3.64132 14.6733 3.99317 14.6733H28.0065C28.7398 14.6733 29.3332 15.268 29.3332 16ZM28.0065 9.32C28.3584 9.32 28.6958 9.18023 28.9446 8.93143C29.1934 8.68264 29.3332 8.34519 29.3332 7.99334C29.3332 7.64148 29.1934 7.30404 28.9446 7.05524C28.6958 6.80644 28.3584 6.66667 28.0065 6.66667H11.9932C11.819 6.66667 11.6464 6.70099 11.4855 6.76766C11.3245 6.83433 11.1783 6.93205 11.0551 7.05524C10.9319 7.17844 10.8342 7.32469 10.7675 7.48565C10.7008 7.6466 10.6665 7.81912 10.6665 7.99334C10.6665 8.16756 10.7008 8.34007 10.7675 8.50103C10.8342 8.66199 10.9319 8.80824 11.0551 8.93143C11.1783 9.05463 11.3245 9.15235 11.4855 9.21902C11.6464 9.28569 11.819 9.32 11.9932 9.32H28.0065Z" fill="#EAEAEA"/>
</svg>
