<svg width="129" height="97" viewBox="0 0 129 97" fill="none" xmlns="http://www.w3.org/2000/svg">
<path d="M110.322 55.6141C106.298 55.6193 102.329 56.5329 98.713 58.2858C97.581 56.4204 96.7068 54.4122 96.114 52.3154C95.7734 50.6717 95.6946 48.9852 95.8806 47.3173C96.2717 45.482 96.7791 43.6731 97.3998 41.9012C97.3769 41.6695 97.1206 40.5745 94.5445 40.5381C91.9683 40.5018 89.749 41.0243 89.5111 41.7013C89.0637 42.9379 88.7044 44.2042 88.4358 45.4908C86.3037 50.7138 83.6793 55.725 80.5975 60.4577C78.8709 57.647 78.1607 54.3358 78.5841 51.0704C78.9752 49.2351 79.4826 47.4261 80.1033 45.6543C80.0804 45.4226 79.8242 44.3276 77.248 44.2912C74.6718 44.2549 72.4526 44.7774 72.2146 45.4544C71.9767 46.1314 71.6747 47.7263 71.1393 49.2438C70.604 50.7614 64.3534 64.6288 62.7153 68.2046C61.8734 70.0221 61.1458 71.5034 60.6333 72.503C60.609 72.5679 60.5784 72.6303 60.5418 72.6893L59.8417 74.016V74.0387C59.4894 74.6658 59.1142 75.2474 58.9266 75.2474C58.5993 73.9492 58.6151 72.5892 58.9723 71.2989C59.8875 66.4871 62.1296 59.0082 62.1067 58.7492C62.1067 58.6084 62.5277 57.3089 60.6562 56.6364C60.2221 56.4313 59.7347 56.3649 59.2611 56.4462C58.7874 56.5276 58.3508 56.7528 58.0114 57.0908C57.8467 57.0908 57.7323 57.4861 57.7323 57.4861C57.7323 57.4861 59.7685 49.0757 53.8474 49.0757C51.5416 49.5363 49.3519 50.4501 47.407 51.7633C45.4621 53.0766 43.8013 54.7628 42.5224 56.7227C40.93 57.5815 37.5393 59.4172 33.9107 61.3937C32.538 62.1615 31.1012 62.9294 29.7696 63.6655C29.6781 63.5746 29.582 63.4565 29.4905 63.3656C22.2837 55.7413 9.03675 50.3616 9.60872 40.161C9.81921 36.4443 11.105 26.6844 35.0455 14.83C54.7489 5.18827 70.4301 7.85996 73.1435 13.7849C77.0284 22.2453 64.7424 37.9528 44.3847 40.2292C42.1325 40.6829 39.8065 40.6281 37.5785 40.069C35.3505 39.5098 33.2776 38.4605 31.513 36.9986C30.4377 35.8354 30.273 35.7673 29.8749 35.999C29.2205 36.3489 29.6415 37.3939 29.8749 37.9982C30.6515 39.3938 31.7019 40.6207 32.9641 41.6063C34.2263 42.592 35.6747 43.3165 37.2236 43.7369C45.2323 45.4554 53.5822 44.6337 61.0955 41.3878C73.4501 36.6487 83.0592 23.4721 80.2406 12.4354C77.4082 1.23526 58.6886 -2.45875 40.9712 3.80244C29.8737 7.51043 19.6198 13.351 10.7939 20.9912C1.0337 30.0559 -0.50834 37.9301 0.123119 41.2333C2.41101 52.9469 18.6596 60.5667 25.1618 66.2236C24.868 66.3895 24.5721 66.5515 24.2741 66.7098C21.0207 68.3137 8.62035 74.7521 5.51339 81.5585C2.00377 89.2828 6.07622 94.8034 8.76678 95.5485C12.821 96.5122 17.077 96.1948 20.9407 94.6406C24.8044 93.0864 28.083 90.373 30.3187 86.8792C32.2225 83.9813 33.3928 80.6694 33.7298 77.2256C34.0668 73.7818 33.5606 70.3082 32.2543 67.1005C32.2322 67.0487 32.2013 67.001 32.1628 66.9597L34.7115 65.4739C36.2602 64.5648 37.8285 63.6892 39.4154 62.8476C38.4628 65.5759 37.9036 68.4242 37.7544 71.308C37.431 75.7279 38.7932 80.1071 41.5706 83.5759C41.9932 83.9372 42.4838 84.2115 43.014 84.3831C43.5442 84.5547 44.1034 84.6201 44.6593 84.5755C47.4047 84.5755 48.6631 82.3037 50.0404 79.6047C51.7243 76.306 53.2434 72.4712 53.2434 72.4712C53.2434 72.4712 51.3491 82.8353 56.4968 82.8353C58.3683 82.8353 60.2627 80.4181 61.1092 79.2004V79.2231L61.251 78.9913L61.5531 78.5052V78.4597C62.3035 77.1602 63.9874 74.2068 66.4903 69.3042C69.7208 62.9839 72.8324 55.0825 72.8324 55.0825C73.1325 56.819 73.5467 58.5341 74.0724 60.2168C74.8261 62.2567 75.7173 64.2437 76.7401 66.1645C75.9897 67.2096 75.5229 67.7912 75.5229 67.7912L75.5458 67.8139C74.9372 68.6045 74.2829 69.4632 73.5553 70.2993C71.3907 72.6624 69.3823 75.1621 67.5428 77.7827C67.2694 78.2229 67.1755 78.75 67.2801 79.2566C67.3847 79.7632 67.6799 80.2111 68.1056 80.5089C69.0688 81.0066 70.1668 81.1865 71.24 81.0224C72.8573 80.9317 74.4476 80.5707 75.9439 79.9546C77.3899 79.4493 78.7541 78.7376 79.9935 77.8418C81.2712 76.9628 82.2997 75.7722 82.98 74.3844C83.6604 72.9967 83.9697 71.4584 83.8783 69.9176C83.7344 67.9767 83.2351 66.0782 82.4049 64.3152C82.6383 63.9881 82.8625 63.6655 83.0821 63.3384C85.6836 59.4825 88.0284 55.4619 90.1014 51.3021C90.4015 53.0386 90.8157 54.7537 91.3414 56.4365C91.963 58.1992 92.7282 59.9088 93.6293 61.5481C90.6365 63.8346 88.2791 66.8399 86.7794 70.2811C85.306 74.5113 86.4499 76.4151 88.6097 76.8558C89.7915 76.9367 90.9732 76.6964 92.0278 76.1606C93.5784 75.6546 95.0392 74.9094 96.3565 73.9524C97.7455 73.1384 98.9089 71.9943 99.742 70.6229C100.575 69.2516 101.052 67.6961 101.129 66.0964C101.025 64.4996 100.662 62.9299 100.054 61.4482C104.003 59.9161 108.285 59.4276 112.482 60.0306C123.619 61.33 125.82 68.2319 125.399 71.1399C125.202 72.1708 124.784 73.1477 124.175 74.0051C123.566 74.8625 122.778 75.5804 121.866 76.1107C121.093 76.5968 120.837 76.7604 120.906 77.1103C120.997 77.6237 121.363 77.5964 122.027 77.5056C123.705 76.9875 125.186 75.9764 126.274 74.6055C127.362 73.2346 128.007 71.5685 128.122 69.8267C128.474 63.0112 121.921 55.5368 110.336 55.605L110.322 55.6141ZM24.3885 84.3665C20.6913 88.365 15.5435 89.8735 13.3197 88.5967C10.9311 87.2336 11.8692 81.3268 16.4083 77.0921C19.101 74.6853 22.0113 72.53 25.1023 70.6537C25.6423 70.3265 26.4385 69.8631 27.3902 69.2906L27.6465 69.1497L28.2093 68.7999C29.0202 71.4979 29.0938 74.3616 28.4223 77.0971C27.7509 79.8326 26.3587 82.3416 24.3885 84.3665ZM51.2987 66.1918C50.0129 69.3042 47.3224 77.2784 45.6842 76.8331C44.2795 76.4605 43.3963 70.4174 45.4051 64.447C46.4193 61.5729 47.8967 58.8814 49.7796 56.4774C51.7929 54.2464 54.0167 53.5013 54.5521 54.41C54.0637 58.4761 52.9671 62.447 51.2987 66.1918ZM73.505 76.7422C72.9651 77.0194 72.4526 77.1966 72.2192 77.0694C72.0545 76.9785 72.4526 76.615 72.4526 76.615C72.4526 76.615 75.2392 73.6389 76.3374 72.294C76.9689 71.5034 77.7102 70.5764 78.5155 69.5269V69.8267C78.5155 73.3799 75.0516 75.7744 73.5096 76.7513L73.505 76.7422ZM90.6368 72.8619C90.2387 72.5848 90.3073 71.6533 91.6434 68.7499C92.5725 66.8852 93.8704 65.2255 95.4596 63.87C95.7033 64.5578 95.8301 65.281 95.8348 66.01C95.8529 67.5619 95.3532 69.076 94.4137 70.3163C93.4742 71.5566 92.1478 72.4532 90.6413 72.8665L90.6368 72.8619Z" fill="#EAEAEA"/>
</svg>
