<svg width="48" height="48" viewBox="0 0 48 48" fill="none" xmlns="http://www.w3.org/2000/svg">
<path d="M43.4999 41.3791L32.1719 30.0511C34.8941 26.783 36.2516 22.5913 35.9619 18.3479C35.6723 14.1045 33.7578 10.1361 30.6168 7.26832C27.4758 4.40051 23.35 2.85406 19.0979 2.95068C14.8457 3.0473 10.7945 4.77954 7.78694 7.78706C4.77942 10.7946 3.04718 14.8458 2.95056 19.098C2.85394 23.3502 4.40039 27.4759 7.2682 30.6169C10.136 33.7579 14.1044 35.6724 18.3478 35.962C22.5912 36.2517 26.7829 34.8942 30.0509 32.1721L41.3789 43.5001L43.4999 41.3791ZM5.99993 19.5001C5.99993 16.83 6.79169 14.2199 8.27509 11.9999C9.75849 9.77979 11.8669 8.04946 14.3337 7.02768C16.8005 6.00589 19.5149 5.73855 22.1336 6.25945C24.7524 6.78035 27.1579 8.0661 29.0459 9.95411C30.9339 11.8421 32.2196 14.2476 32.7405 16.8663C33.2614 19.4851 32.9941 22.1995 31.9723 24.6663C30.9505 27.1331 29.2202 29.2415 27.0001 30.7249C24.7801 32.2083 22.17 33.0001 19.4999 33.0001C15.9207 32.9961 12.4893 31.5725 9.95837 29.0416C7.42749 26.5107 6.0039 23.0793 5.99993 19.5001Z" fill="#9BF00B"/>
</svg>
