<svg width="48" height="48" viewBox="0 0 48 48" fill="none" xmlns="http://www.w3.org/2000/svg">
<path d="M18.1333 31.2L21.5556 28.35L16.2389 24L21.5556 19.65L18.1333 16.8L9.33333 24L18.1333 31.2ZM29.8667 31.2L38.6667 24L29.8667 16.8L26.4444 19.65L31.7611 24L26.4444 28.35L29.8667 31.2ZM6.88889 42C5.54444 42 4.39311 41.6087 3.43489 40.826C2.4783 40.042 2 39.1 2 38V10C2 8.9 2.4783 7.958 3.43489 7.174C4.39311 6.39133 5.54444 6 6.88889 6H41.1111C42.4556 6 43.6069 6.39133 44.5651 7.174C45.5217 7.958 46 8.9 46 10V38C46 39.1 45.5217 40.042 44.5651 40.826C43.6069 41.6087 42.4556 42 41.1111 42H6.88889ZM6.88889 38H41.1111V10H6.88889V38ZM6.88889 10V38V10Z" fill="#9BF00B"/>
</svg>
