<svg width="40" height="40" viewBox="0 0 40 40" fill="none" xmlns="http://www.w3.org/2000/svg">
<path d="M15.1109 26L17.9628 23.625L13.5322 20L17.9628 16.375L15.1109 14L7.77762 20L15.1109 26ZM24.8887 26L32.2221 20L24.8887 14L22.0369 16.375L26.4674 20L22.0369 23.625L24.8887 26ZM5.74058 35C4.62021 35 3.66076 34.6739 2.86224 34.0217C2.06508 33.3683 1.6665 32.5833 1.6665 31.6667V8.33333C1.6665 7.41667 2.06508 6.63167 2.86224 5.97833C3.66076 5.32611 4.62021 5 5.74058 5H34.2591C35.3795 5 36.3389 5.32611 37.1374 5.97833C37.9346 6.63167 38.3332 7.41667 38.3332 8.33333V31.6667C38.3332 32.5833 37.9346 33.3683 37.1374 34.0217C36.3389 34.6739 35.3795 35 34.2591 35H5.74058ZM5.74058 31.6667H34.2591V8.33333H5.74058V31.6667ZM5.74058 8.33333V31.6667V8.33333Z" fill="#9BF00B"/>
</svg>
