<svg width="40" height="40" viewBox="0 0 40 40" fill="none" xmlns="http://www.w3.org/2000/svg">
<path d="M36.2498 34.4825L26.8098 25.0425C29.0783 22.3192 30.2095 18.8261 29.9681 15.2899C29.7267 11.7537 28.1313 8.44676 25.5138 6.05692C22.8963 3.66707 19.4582 2.37837 15.9147 2.45888C12.3712 2.53939 8.99522 3.98293 6.48895 6.4892C3.98269 8.99546 2.53915 12.3715 2.45864 15.915C2.37812 19.4584 3.66683 22.8966 6.05667 25.5141C8.44652 28.1316 11.7535 29.727 15.2897 29.9684C18.8258 30.2097 22.3189 29.0785 25.0423 26.81L34.4823 36.25L36.2498 34.4825ZM4.99978 16.25C4.99978 14.025 5.65958 11.8499 6.89575 9.99986C8.13191 8.1498 9.88892 6.70786 11.9446 5.85638C14.0003 5.00489 16.2623 4.7821 18.4445 5.21619C20.6268 5.65027 22.6314 6.72173 24.2047 8.29507C25.7781 9.86841 26.8495 11.873 27.2836 14.0553C27.7177 16.2375 27.4949 18.4995 26.6434 20.5552C25.7919 22.6109 24.35 24.3679 22.4999 25.6041C20.6499 26.8402 18.4748 27.5 16.2498 27.5C13.2671 27.4967 10.4075 26.3104 8.29848 24.2013C6.18941 22.0923 5.00309 19.2327 4.99978 16.25Z" fill="#9BF00B"/>
</svg>
