<svg width="40" height="40" viewBox="0 0 40 40" fill="none" xmlns="http://www.w3.org/2000/svg">
<path fill-rule="evenodd" clip-rule="evenodd" d="M23.3332 11.6666C22.8911 11.6666 22.4672 11.8422 22.1547 12.1548C21.8421 12.4673 21.6665 12.8913 21.6665 13.3333V26.6666C21.6665 27.1087 21.8421 27.5326 22.1547 27.8451C22.4672 28.1577 22.8911 28.3333 23.3332 28.3333H29.9998C30.4419 28.3333 30.8658 28.1577 31.1783 27.8451C31.4909 27.5326 31.6665 27.1087 31.6665 26.6666V13.3333C31.6665 12.8913 31.4909 12.4673 31.1783 12.1548C30.8658 11.8422 30.4419 11.6666 29.9998 11.6666H23.3332ZM28.3332 15H24.9998V25H28.3332V15Z" fill="#9BF00B"/>
<path d="M9.99967 11.6666C9.55765 11.6666 9.13372 11.8422 8.82116 12.1548C8.5086 12.4673 8.33301 12.8913 8.33301 13.3333C8.33301 13.7753 8.5086 14.1992 8.82116 14.5118C9.13372 14.8244 9.55765 15 9.99967 15H16.6663C17.1084 15 17.5323 14.8244 17.8449 14.5118C18.1574 14.1992 18.333 13.7753 18.333 13.3333C18.333 12.8913 18.1574 12.4673 17.8449 12.1548C17.5323 11.8422 17.1084 11.6666 16.6663 11.6666H9.99967ZM9.99967 18.3333C9.55765 18.3333 9.13372 18.5089 8.82116 18.8214C8.5086 19.134 8.33301 19.5579 8.33301 20C8.33301 20.442 8.5086 20.8659 8.82116 21.1785C9.13372 21.491 9.55765 21.6666 9.99967 21.6666H16.6663C17.1084 21.6666 17.5323 21.491 17.8449 21.1785C18.1574 20.8659 18.333 20.442 18.333 20C18.333 19.5579 18.1574 19.134 17.8449 18.8214C17.5323 18.5089 17.1084 18.3333 16.6663 18.3333H9.99967ZM8.33301 26.6666C8.33301 26.2246 8.5086 25.8007 8.82116 25.4881C9.13372 25.1756 9.55765 25 9.99967 25H16.6663C17.1084 25 17.5323 25.1756 17.8449 25.4881C18.1574 25.8007 18.333 26.2246 18.333 26.6666C18.333 27.1087 18.1574 27.5326 17.8449 27.8451C17.5323 28.1577 17.1084 28.3333 16.6663 28.3333H9.99967C9.55765 28.3333 9.13372 28.1577 8.82116 27.8451C8.5086 27.5326 8.33301 27.1087 8.33301 26.6666Z" fill="#9BF00B"/>
<path fill-rule="evenodd" clip-rule="evenodd" d="M6.6665 5C5.34042 5 4.06865 5.52678 3.13097 6.46447C2.19329 7.40215 1.6665 8.67392 1.6665 10V30C1.6665 31.3261 2.19329 32.5979 3.13097 33.5355C4.06865 34.4732 5.34042 35 6.6665 35H33.3332C34.6593 35 35.931 34.4732 36.8687 33.5355C37.8064 32.5979 38.3332 31.3261 38.3332 30V10C38.3332 8.67392 37.8064 7.40215 36.8687 6.46447C35.931 5.52678 34.6593 5 33.3332 5H6.6665ZM33.3332 8.33333H6.6665C6.22448 8.33333 5.80055 8.50893 5.48799 8.82149C5.17543 9.13405 4.99984 9.55797 4.99984 10V30C4.99984 30.442 5.17543 30.866 5.48799 31.1785C5.80055 31.4911 6.22448 31.6667 6.6665 31.6667H33.3332C33.7752 31.6667 34.1991 31.4911 34.5117 31.1785C34.8242 30.866 34.9998 30.442 34.9998 30V10C34.9998 9.55797 34.8242 9.13405 34.5117 8.82149C34.1991 8.50893 33.7752 8.33333 33.3332 8.33333Z" fill="#9BF00B"/>
</svg>
