<svg width="48" height="48" viewBox="0 0 48 48" fill="none" xmlns="http://www.w3.org/2000/svg">
<path fill-rule="evenodd" clip-rule="evenodd" d="M28 14C27.4696 14 26.9609 14.2107 26.5858 14.5858C26.2107 14.9609 26 15.4696 26 16V32C26 32.5304 26.2107 33.0391 26.5858 33.4142C26.9609 33.7893 27.4696 34 28 34H36C36.5304 34 37.0391 33.7893 37.4142 33.4142C37.7893 33.0391 38 32.5304 38 32V16C38 15.4696 37.7893 14.9609 37.4142 14.5858C37.0391 14.2107 36.5304 14 36 14H28ZM34 18H30V30H34V18Z" fill="#9BF00B"/>
<path d="M12 14C11.4696 14 10.9609 14.2107 10.5858 14.5858C10.2107 14.9609 10 15.4696 10 16C10 16.5304 10.2107 17.0391 10.5858 17.4142C10.9609 17.7893 11.4696 18 12 18H20C20.5304 18 21.0391 17.7893 21.4142 17.4142C21.7893 17.0391 22 16.5304 22 16C22 15.4696 21.7893 14.9609 21.4142 14.5858C21.0391 14.2107 20.5304 14 20 14H12ZM12 22C11.4696 22 10.9609 22.2107 10.5858 22.5858C10.2107 22.9609 10 23.4696 10 24C10 24.5304 10.2107 25.0391 10.5858 25.4142C10.9609 25.7893 11.4696 26 12 26H20C20.5304 26 21.0391 25.7893 21.4142 25.4142C21.7893 25.0391 22 24.5304 22 24C22 23.4696 21.7893 22.9609 21.4142 22.5858C21.0391 22.2107 20.5304 22 20 22H12ZM10 32C10 31.4696 10.2107 30.9609 10.5858 30.5858C10.9609 30.2107 11.4696 30 12 30H20C20.5304 30 21.0391 30.2107 21.4142 30.5858C21.7893 30.9609 22 31.4696 22 32C22 32.5304 21.7893 33.0391 21.4142 33.4142C21.0391 33.7893 20.5304 34 20 34H12C11.4696 34 10.9609 33.7893 10.5858 33.4142C10.2107 33.0391 10 32.5304 10 32Z" fill="#9BF00B"/>
<path fill-rule="evenodd" clip-rule="evenodd" d="M8 6C6.4087 6 4.88258 6.63214 3.75736 7.75736C2.63214 8.88258 2 10.4087 2 12V36C2 37.5913 2.63214 39.1174 3.75736 40.2426C4.88258 41.3679 6.4087 42 8 42H40C41.5913 42 43.1174 41.3679 44.2426 40.2426C45.3679 39.1174 46 37.5913 46 36V12C46 10.4087 45.3679 8.88258 44.2426 7.75736C43.1174 6.63214 41.5913 6 40 6H8ZM40 10H8C7.46957 10 6.96086 10.2107 6.58579 10.5858C6.21071 10.9609 6 11.4696 6 12V36C6 36.5304 6.21071 37.0391 6.58579 37.4142C6.96086 37.7893 7.46957 38 8 38H40C40.5304 38 41.0391 37.7893 41.4142 37.4142C41.7893 37.0391 42 36.5304 42 36V12C42 11.4696 41.7893 10.9609 41.4142 10.5858C41.0391 10.2107 40.5304 10 40 10Z" fill="#9BF00B"/>
</svg>
