<svg width="96" height="96" viewBox="0 0 96 96" fill="none" xmlns="http://www.w3.org/2000/svg">
<g clip-path="url(#clip0_81_267)">
<path d="M23.9055 45.774C23.5331 50.4627 27.6522 53.9162 30.4633 53.9162C33.2784 53.7849 44.2419 44.5459 44.2419 44.5459C49.3983 38.0246 49.4206 35.1248 49.4206 32.8457C48.9905 22.7833 30.6581 38.1093 23.9055 45.774ZM69.2552 41.8793C71.7436 36.6127 68.3957 30.7631 61.1134 35.9011C55.3266 39.5791 47.8348 47.1455 44.2493 50.1075C42.5863 53.4665 46.802 62.6849 53.4826 57.8176C61.3789 52.0807 67.1453 46.6862 69.2552 41.8793ZM76.0326 10.0197L77.6362 0H95.33V18.2903L88.8455 18.3678L81.0376 44.8133C81.5235 54.1467 76.7906 54.2986 76.186 58.5812C74.6665 69.3449 62.6294 78.1522 58.0273 78.1522C54.9579 78.0632 52.7141 74.5453 51.9604 71.4798C60.6146 61.9077 72.2523 54.3854 72.2523 54.3854C72.979 49.3513 71.3819 47.7486 76.7531 43.4589L81.8786 16.51C77.5012 13.6193 75.4587 13.6642 76.0326 10.0197ZM41.4965 54.6498C45.9841 63.692 52.4682 63.9277 62.5212 52.4157C62.7601 53.4799 63.0217 54.595 62.5417 57.2725C42.0912 75.5637 22.8297 93.3657 16.9667 95.33H0V90.7795C2.75936 86.9529 25.4054 68.2743 41.4965 54.6498ZM71.7206 72.1574C70.7998 79.9841 63.6641 86.833 54.1288 95.33H23.9092L49.3854 73.8705C53.7832 83.8792 61.5947 82.4294 71.7207 72.1574H71.7206ZM35.9834 54.3921L0 85.0623V65.164L21.1756 47.9257C22.3083 54.342 29.2479 59.992 35.9834 54.3925V54.3921Z" fill="#EAEAEA"/>
</g>
<defs>
<clipPath id="clip0_81_267">
<rect width="95.33" height="95.33" fill="white"/>
</clipPath>
</defs>
</svg>
